<?xml version="1.0" encoding="UTF-8"?>
<!-- Do not edit this file with editors other than draw.io -->
<!DOCTYPE svg PUBLIC "-//W3C//DTD SVG 1.1//EN" "http://www.w3.org/Graphics/SVG/1.1/DTD/svg11.dtd">
<svg xmlns="http://www.w3.org/2000/svg" style="background: transparent; background-color: transparent; color-scheme: light dark;" xmlns:xlink="http://www.w3.org/1999/xlink" version="1.1" width="1375px" height="1354px" viewBox="-0.5 -0.5 1375 1354" content="&lt;mxfile host=&quot;app.diagrams.net&quot; agent=&quot;Mozilla/5.0 (Windows NT 10.0; Win64; x64) AppleWebKit/537.36 (KHTML, like Gecko) Chrome/138.0.0.0 Safari/537.36 Edg/138.0.0.0&quot; version=&quot;26.2.14&quot; scale=&quot;1&quot; border=&quot;0&quot;&gt;&#10;  &lt;diagram name=&quot;Sayfa -1&quot; id=&quot;jvkun_TXdrtpnwDMuOtD&quot;&gt;&#10;    &lt;mxGraphModel dx=&quot;2623&quot; dy=&quot;1273&quot; grid=&quot;1&quot; gridSize=&quot;10&quot; guides=&quot;1&quot; tooltips=&quot;1&quot; connect=&quot;1&quot; arrows=&quot;1&quot; fold=&quot;1&quot; page=&quot;1&quot; pageScale=&quot;1&quot; pageWidth=&quot;827&quot; pageHeight=&quot;1169&quot; math=&quot;0&quot; shadow=&quot;0&quot;&gt;&#10;      &lt;root&gt;&#10;        &lt;mxCell id=&quot;0&quot; /&gt;&#10;        &lt;mxCell id=&quot;1&quot; parent=&quot;0&quot; /&gt;&#10;        &lt;mxCell id=&quot;95WpcyhUlOs83-GWpcm7-7&quot; value=&quot;&quot; style=&quot;curved=1;endArrow=classic;html=1;rounded=0;strokeWidth=3;flowAnimation=0;sketch=1;curveFitting=1;jiggle=2;shadow=1;dashed=1;dashPattern=8 8;&quot; edge=&quot;1&quot; parent=&quot;1&quot;&gt;&#10;          &lt;mxGeometry width=&quot;50&quot; height=&quot;50&quot; relative=&quot;1&quot; as=&quot;geometry&quot;&gt;&#10;            &lt;mxPoint x=&quot;90.95&quot; y=&quot;1210&quot; as=&quot;sourcePoint&quot; /&gt;&#10;            &lt;mxPoint x=&quot;661&quot; y=&quot;990&quot; as=&quot;targetPoint&quot; /&gt;&#10;            &lt;Array as=&quot;points&quot;&gt;&#10;              &lt;mxPoint x=&quot;270.95&quot; y=&quot;1170&quot; /&gt;&#10;              &lt;mxPoint x=&quot;400&quot; y=&quot;950&quot; /&gt;&#10;            &lt;/Array&gt;&#10;          &lt;/mxGeometry&gt;&#10;        &lt;/mxCell&gt;&#10;        &lt;mxCell id=&quot;95WpcyhUlOs83-GWpcm7-12&quot; value=&quot;&quot; style=&quot;curved=1;endArrow=classic;html=1;rounded=0;strokeWidth=3;flowAnimation=0;sketch=1;curveFitting=1;jiggle=2;shadow=1;dashed=1;dashPattern=8 8;entryX=0.513;entryY=0.495;entryDx=0;entryDy=0;entryPerimeter=0;exitX=0.713;exitY=0.466;exitDx=0;exitDy=0;exitPerimeter=0;&quot; edge=&quot;1&quot; parent=&quot;1&quot;&gt;&#10;          &lt;mxGeometry width=&quot;50&quot; height=&quot;50&quot; relative=&quot;1&quot; as=&quot;geometry&quot;&gt;&#10;            &lt;mxPoint x=&quot;770.4760000000001&quot; y=&quot;1450.5480000000002&quot; as=&quot;sourcePoint&quot; /&gt;&#10;            &lt;mxPoint x=&quot;400.076&quot; y=&quot;1560.1099999999997&quot; as=&quot;targetPoint&quot; /&gt;&#10;            &lt;Array as=&quot;points&quot;&gt;&#10;              &lt;mxPoint x=&quot;720&quot; y=&quot;1540&quot; /&gt;&#10;              &lt;mxPoint x=&quot;400&quot; y=&quot;1430&quot; /&gt;&#10;            &lt;/Array&gt;&#10;          &lt;/mxGeometry&gt;&#10;        &lt;/mxCell&gt;&#10;        &lt;mxCell id=&quot;95WpcyhUlOs83-GWpcm7-13&quot; value=&quot;&quot; style=&quot;curved=1;endArrow=classic;html=1;rounded=0;strokeWidth=3;flowAnimation=0;sketch=1;curveFitting=1;jiggle=2;shadow=1;dashed=1;dashPattern=8 8;entryX=0.513;entryY=0.495;entryDx=0;entryDy=0;entryPerimeter=0;exitX=0.368;exitY=0.564;exitDx=0;exitDy=0;exitPerimeter=0;&quot; edge=&quot;1&quot; parent=&quot;1&quot;&gt;&#10;          &lt;mxGeometry width=&quot;50&quot; height=&quot;50&quot; relative=&quot;1&quot; as=&quot;geometry&quot;&gt;&#10;            &lt;mxPoint x=&quot;101.53600000000006&quot; y=&quot;1840.7920000000004&quot; as=&quot;sourcePoint&quot; /&gt;&#10;            &lt;mxPoint x=&quot;-310&quot; y=&quot;2200&quot; as=&quot;targetPoint&quot; /&gt;&#10;            &lt;Array as=&quot;points&quot;&gt;&#10;              &lt;mxPoint x=&quot;-170&quot; y=&quot;1870&quot; /&gt;&#10;              &lt;mxPoint x=&quot;-310&quot; y=&quot;2070&quot; /&gt;&#10;            &lt;/Array&gt;&#10;          &lt;/mxGeometry&gt;&#10;        &lt;/mxCell&gt;&#10;        &lt;mxCell id=&quot;95WpcyhUlOs83-GWpcm7-14&quot; value=&quot;&quot; style=&quot;curved=1;endArrow=classic;html=1;rounded=0;strokeWidth=3;flowAnimation=0;sketch=1;curveFitting=1;jiggle=2;shadow=1;dashed=1;dashPattern=8 8;entryX=0.513;entryY=0.495;entryDx=0;entryDy=0;entryPerimeter=0;exitX=0.368;exitY=0.564;exitDx=0;exitDy=0;exitPerimeter=0;&quot; edge=&quot;1&quot; parent=&quot;1&quot;&gt;&#10;          &lt;mxGeometry width=&quot;50&quot; height=&quot;50&quot; relative=&quot;1&quot; as=&quot;geometry&quot;&gt;&#10;            &lt;mxPoint x=&quot;640&quot; y=&quot;1840&quot; as=&quot;sourcePoint&quot; /&gt;&#10;            &lt;mxPoint x=&quot;1052&quot; y=&quot;2199&quot; as=&quot;targetPoint&quot; /&gt;&#10;            &lt;Array as=&quot;points&quot;&gt;&#10;              &lt;mxPoint x=&quot;912&quot; y=&quot;1869&quot; /&gt;&#10;              &lt;mxPoint x=&quot;1052&quot; y=&quot;2069&quot; /&gt;&#10;            &lt;/Array&gt;&#10;          &lt;/mxGeometry&gt;&#10;        &lt;/mxCell&gt;&#10;        &lt;mxCell id=&quot;95WpcyhUlOs83-GWpcm7-15&quot; value=&quot;&quot; style=&quot;curved=1;endArrow=classic;html=1;rounded=0;strokeWidth=3;flowAnimation=0;sketch=1;curveFitting=1;jiggle=2;shadow=1;dashed=1;dashPattern=8 8;entryX=0.513;entryY=0.67;entryDx=0;entryDy=0;entryPerimeter=0;&quot; edge=&quot;1&quot; parent=&quot;1&quot;&gt;&#10;          &lt;mxGeometry width=&quot;50&quot; height=&quot;50&quot; relative=&quot;1&quot; as=&quot;geometry&quot;&gt;&#10;            &lt;mxPoint x=&quot;380&quot; y=&quot;2180&quot; as=&quot;sourcePoint&quot; /&gt;&#10;            &lt;mxPoint x=&quot;379.99600000000004&quot; y=&quot;2330.9&quot; as=&quot;targetPoint&quot; /&gt;&#10;            &lt;Array as=&quot;points&quot; /&gt;&#10;          &lt;/mxGeometry&gt;&#10;        &lt;/mxCell&gt;&#10;      &lt;/root&gt;&#10;    &lt;/mxGraphModel&gt;&#10;  &lt;/diagram&gt;&#10;&lt;/mxfile&gt;&#10;"><defs/><g><g data-cell-id="0"><g data-cell-id="1"><g data-cell-id="95WpcyhUlOs83-GWpcm7-7"><g style="filter: drop-shadow(light-dark(rgba(0, 0, 0, 0.25), rgba(237, 237, 237, 0.25)) 2px 3px 2px);"><path d="M 405.95 234 Q 585.95 194 650.47 84 Q 715 -26 966.01 12.47" fill="none" stroke="none" pointer-events="stroke"/><path d="M 972.68 13.49 L 963.11 16.58 L 966.01 12.47 L 964.47 7.68 Z" fill="none" stroke="none" pointer-events="all"/><path d="M 405.95 234 C 529.72 208.33 604.97 153.98 650.47 84 M 405.95 234 C 527.2 208.75 604.99 152.76 650.47 84 M 650.47 84 C 694.01 11.49 799.98 -13.4 966.01 12.47 M 650.47 84 C 696.11 14.21 795.82 -16.87 966.01 12.47" fill="none" stroke="#000000" stroke-width="3" stroke-linejoin="round" stroke-linecap="round" stroke-miterlimit="10" stroke-dasharray="24 24" pointer-events="stroke" style="stroke: light-dark(rgb(0, 0, 0), rgb(255, 255, 255));"/><path d="M 972.68 13.49 C 969.02 12.9 967.09 17.81 963.11 16.58 C 964.37 15.33 963.82 13.63 966.01 12.47 C 964.93 11.36 964.26 9.55 964.47 7.68 C 965.16 6.76 971.19 12.39 972.68 13.49" fill="#000000" stroke="none" pointer-events="all" style="fill: light-dark(rgb(0, 0, 0), rgb(255, 255, 255));"/><path d="M 972.68 13.49 C 967.24 15.13 965.77 14.73 963.11 16.58 M 972.68 13.49 C 971.1 14.09 969.42 15.54 963.11 16.58 M 963.11 16.58 C 962.98 15.8 963.82 14.06 966.01 12.47 M 963.11 16.58 C 964.19 14.59 964.68 13.73 966.01 12.47 M 966.01 12.47 C 966.21 11.7 965.55 9.91 964.47 7.68 M 966.01 12.47 C 965.57 10.33 964.98 9.17 964.47 7.68 M 964.47 7.68 C 967.31 9.93 970.28 12.66 972.68 13.49 M 964.47 7.68 C 966.9 8.8 969.1 11.54 972.68 13.49" fill="none" stroke="#000000" stroke-width="3" stroke-linejoin="round" stroke-linecap="round" stroke-miterlimit="10" pointer-events="all" style="stroke: light-dark(rgb(0, 0, 0), rgb(255, 255, 255));"/></g></g><g data-cell-id="95WpcyhUlOs83-GWpcm7-12"><g style="filter: drop-shadow(light-dark(rgba(0, 0, 0, 0.25), rgba(237, 237, 237, 0.25)) 2px 3px 2px);"><path d="M 1085.48 474.55 Q 1035 564 875 509 Q 715 454 715.07 574.01" fill="none" stroke="none" pointer-events="stroke"/><path d="M 715.07 580.76 L 710.57 571.76 L 715.07 574.01 L 719.57 571.75 Z" fill="none" stroke="none" pointer-events="all"/><path d="M 1085.48 474.55 C 1048.59 536.6 978.37 544.44 875 509 M 1085.48 474.55 C 1055.77 531.06 983.04 542.3 875 509 M 875 509 C 767.06 473.71 713 490.85 715.07 574.01 M 875 509 C 771.65 468.64 710.53 489.86 715.07 574.01" fill="none" stroke="#000000" stroke-width="3" stroke-linejoin="round" stroke-linecap="round" stroke-miterlimit="10" stroke-dasharray="24 24" pointer-events="stroke" style="stroke: light-dark(rgb(0, 0, 0), rgb(255, 255, 255));"/><path d="M 715.07 580.76 C 715.17 578.59 711.25 576.3 710.57 571.76 C 713 573.65 714.21 572.71 715.07 574.01 C 714.87 572.54 717.09 574.37 719.57 571.75 C 719.68 572.09 716.99 577.84 715.07 580.76" fill="#000000" stroke="none" pointer-events="all" style="fill: light-dark(rgb(0, 0, 0), rgb(255, 255, 255));"/><path d="M 715.07 580.76 C 713.36 580.44 711.62 577.34 710.57 571.76 M 715.07 580.76 C 713.6 577.96 713.81 575.9 710.57 571.76 M 710.57 571.76 C 711.45 572.18 712.46 571.78 715.07 574.01 M 710.57 571.76 C 711.86 572.71 712.74 572.85 715.07 574.01 M 715.07 574.01 C 716.22 572.73 718.6 572.49 719.57 571.75 M 715.07 574.01 C 716.54 573.49 717.67 572.35 719.57 571.75 M 719.57 571.75 C 717.64 572.51 716.4 574.8 715.07 580.76 M 719.57 571.75 C 718.44 573.86 716.6 576.03 715.07 580.76" fill="none" stroke="#000000" stroke-width="3" stroke-linejoin="round" stroke-linecap="round" stroke-miterlimit="10" pointer-events="all" style="stroke: light-dark(rgb(0, 0, 0), rgb(255, 255, 255));"/></g></g><g data-cell-id="95WpcyhUlOs83-GWpcm7-13"><g style="filter: drop-shadow(light-dark(rgba(0, 0, 0, 0.25), rgba(237, 237, 237, 0.25)) 2px 3px 2px);"><path d="M 416.54 864.79 Q 145 894 75 994 Q 5 1094 5 1213.9" fill="none" stroke="none" pointer-events="stroke"/><path d="M 5 1220.65 L 0.5 1211.65 L 5 1213.9 L 9.5 1211.65 Z" fill="none" stroke="none" pointer-events="all"/><path d="M 416.54 864.79 C 232.28 887.36 123.18 923.82 75 994 M 416.54 864.79 C 237.07 885.01 121.12 927.28 75 994 M 75 994 C 27.6 1064.45 7.76 1131.67 5 1213.9 M 75 994 C 26 1063.56 2.13 1135.64 5 1213.9" fill="none" stroke="#000000" stroke-width="3" stroke-linejoin="round" stroke-linecap="round" stroke-miterlimit="10" stroke-dasharray="24 24" pointer-events="stroke" style="stroke: light-dark(rgb(0, 0, 0), rgb(255, 255, 255));"/><path d="M 5 1220.65 C 2.15 1216.53 5.58 1217.85 0.5 1211.65 C 0.88 1212.79 1.74 1212.91 5 1213.9 C 6.29 1213.75 6.83 1211.59 9.5 1211.65 C 7.47 1211.7 7.79 1218.1 5 1220.65" fill="#000000" stroke="none" pointer-events="all" style="fill: light-dark(rgb(0, 0, 0), rgb(255, 255, 255));"/><path d="M 5 1220.65 C 2.11 1219.39 3.21 1216.5 0.5 1211.65 M 5 1220.65 C 4.38 1217.47 1.83 1215.99 0.5 1211.65 M 0.5 1211.65 C 1.41 1211.28 2 1212.3 5 1213.9 M 0.5 1211.65 C 1.3 1212.56 2.51 1212.53 5 1213.9 M 5 1213.9 C 5.67 1213.26 8.88 1211.85 9.5 1211.65 M 5 1213.9 C 6.3 1213.34 8.14 1212.56 9.5 1211.65 M 9.5 1211.65 C 9.36 1213.66 8.02 1219.04 5 1220.65 M 9.5 1211.65 C 9.39 1213.25 7.93 1214.82 5 1220.65" fill="none" stroke="#000000" stroke-width="3" stroke-linejoin="round" stroke-linecap="round" stroke-miterlimit="10" pointer-events="all" style="stroke: light-dark(rgb(0, 0, 0), rgb(255, 255, 255));"/></g></g><g data-cell-id="95WpcyhUlOs83-GWpcm7-14"><g style="filter: drop-shadow(light-dark(rgba(0, 0, 0, 0.25), rgba(237, 237, 237, 0.25)) 2px 3px 2px);"><path d="M 955 864 Q 1227 893 1297 993 Q 1367 1093 1367 1212.9" fill="none" stroke="none" pointer-events="stroke"/><path d="M 1367 1219.65 L 1362.5 1210.65 L 1367 1212.9 L 1371.5 1210.65 Z" fill="none" stroke="none" pointer-events="all"/><path d="M 955 864 C 1133.1 887.11 1248.66 928.53 1297 993 M 955 864 C 1135.51 878.74 1247.86 929.59 1297 993 M 1297 993 C 1343.47 1057.86 1366.55 1131.52 1367 1212.9 M 1297 993 C 1344.88 1059.94 1365.74 1131.26 1367 1212.9" fill="none" stroke="#000000" stroke-width="3" stroke-linejoin="round" stroke-linecap="round" stroke-miterlimit="10" stroke-dasharray="24 24" pointer-events="stroke" style="stroke: light-dark(rgb(0, 0, 0), rgb(255, 255, 255));"/><path d="M 1367 1219.65 C 1366.44 1217.42 1365.04 1214.91 1362.5 1210.65 C 1364.55 1211.75 1365.95 1213.38 1367 1212.9 C 1368.87 1211.69 1369.65 1211.64 1371.5 1210.65 C 1372.97 1210.41 1370.65 1211.83 1367 1219.65" fill="#000000" stroke="none" pointer-events="all" style="fill: light-dark(rgb(0, 0, 0), rgb(255, 255, 255));"/><path d="M 1367 1219.65 C 1366.95 1217.28 1362.85 1214.58 1362.5 1210.65 M 1367 1219.65 C 1365.23 1215.91 1363.94 1213 1362.5 1210.65 M 1362.5 1210.65 C 1363.34 1211.5 1365.53 1211.93 1367 1212.9 M 1362.5 1210.65 C 1364.71 1211.79 1366.16 1212.05 1367 1212.9 M 1367 1212.9 C 1369.21 1212.9 1369.21 1212.33 1371.5 1210.65 M 1367 1212.9 C 1368.24 1212.75 1368.87 1211.77 1371.5 1210.65 M 1371.5 1210.65 C 1370.38 1212.12 1369.85 1214.76 1367 1219.65 M 1371.5 1210.65 C 1369.49 1213.37 1367.52 1218.16 1367 1219.65" fill="none" stroke="#000000" stroke-width="3" stroke-linejoin="round" stroke-linecap="round" stroke-miterlimit="10" pointer-events="all" style="stroke: light-dark(rgb(0, 0, 0), rgb(255, 255, 255));"/></g></g><g data-cell-id="95WpcyhUlOs83-GWpcm7-15"><g style="filter: drop-shadow(light-dark(rgba(0, 0, 0, 0.25), rgba(237, 237, 237, 0.25)) 2px 3px 2px);"><path d="M 695 1204 Q 695 1204 695 1344.8" fill="none" stroke="none" pointer-events="stroke"/><path d="M 695 1351.55 L 690.5 1342.55 L 695 1344.8 L 699.5 1342.55 Z" fill="none" stroke="none" pointer-events="all"/><path d="M 695 1204 C 691.77 1200.46 698.14 1250.85 695 1344.8 M 695 1204 C 691.79 1203.28 690.6 1248.3 695 1344.8" fill="none" stroke="#000000" stroke-width="3" stroke-linejoin="round" stroke-linecap="round" stroke-miterlimit="10" stroke-dasharray="24 24" pointer-events="stroke" style="stroke: light-dark(rgb(0, 0, 0), rgb(255, 255, 255));"/><path d="M 695 1351.55 C 690.6 1345.58 690 1344.87 690.5 1342.55 C 690.5 1342.91 694.36 1342.78 695 1344.8 C 695.42 1344.9 697.33 1343.68 699.5 1342.55 C 697.93 1343.82 697.71 1347.69 695 1351.55" fill="#000000" stroke="none" pointer-events="all" style="fill: light-dark(rgb(0, 0, 0), rgb(255, 255, 255));"/><path d="M 695 1351.55 C 694.13 1348.25 692.87 1345.75 690.5 1342.55 M 695 1351.55 C 692.97 1349.23 691.83 1346.68 690.5 1342.55 M 690.5 1342.55 C 691.37 1342.61 693.15 1344.46 695 1344.8 M 690.5 1342.55 C 692.13 1343.47 693.92 1344.57 695 1344.8 M 695 1344.8 C 696.73 1343.43 697.56 1343.7 699.5 1342.55 M 695 1344.8 C 695.99 1344.61 697.31 1343.98 699.5 1342.55 M 699.5 1342.55 C 697.05 1343.3 697.31 1347.22 695 1351.55 M 699.5 1342.55 C 698.15 1344.76 696.57 1348.96 695 1351.55" fill="none" stroke="#000000" stroke-width="3" stroke-linejoin="round" stroke-linecap="round" stroke-miterlimit="10" pointer-events="all" style="stroke: light-dark(rgb(0, 0, 0), rgb(255, 255, 255));"/></g></g></g></g></g></svg>